<svg xmlns="http://www.w3.org/2000/svg" width="335" height="137" fill="none"><g filter="url(#a)"><path fill="url(#b)" d="m282.555 64.782 2.192 28.808 28.799 2.192-28.799 2.192-2.192 28.808-2.191-28.808-28.8-2.192 28.8-2.192 2.191-28.808Z"/></g><path fill="url(#c)" d="m282.557 78.31.633 17.269 17.263.633-17.263.633-.633 17.268-.633-17.268-17.263-.633 17.263-.633.633-17.268Z"/><g filter="url(#d)"><path fill="url(#e)" d="m73.333 22.34 1.555 20.445 20.44 1.556-20.44 1.556-1.555 20.444-1.555-20.444L51.34 44.34l20.44-1.556 1.554-20.444Z"/></g><path fill="url(#f)" d="m73.334 31.94.539 12.166 12.161.539-12.161.539-.54 12.165-.538-12.165-12.162-.54 12.162-.538.539-12.166Z"/><g clip-path="url(#g)"><path fill="#fff" fill-rule="evenodd" d="M53.086 46.794c1.103 6.964-.367 14.539-9.006 17.446-.037 0-.11 0-.147-.036-1.508-1.974-1.875-5.348-1.985-6.676 0-.252-.294-.395-.515-.252-4.632 2.585-8.933 8.687-8.933 14.61 0 10.16 7.095 18.667 19.3 18.667 11.432 0 19.299-8.76 19.299-18.667 0-12.923-9.3-21.502-17.572-25.415-.22-.107-.44.072-.44.323ZM232.017 89.45c-11.508 0-20.484-8.056-20.484-19.851 0-11.853 8.976-19.851 20.484-19.851 9.551 0 14.499 5.236 17.031 10.3l-8.516 4.027c-1.266-3.05-4.545-5.581-8.515-5.581-5.985 0-10.415 4.833-10.415 11.105s4.43 11.105 10.415 11.105c3.97 0 7.249-2.532 8.515-5.581l8.516 4.027c-2.474 4.949-7.48 10.3-17.031 10.3ZM82.849 75.928l-5.236 7.423c3.855 3.682 9.264 6.099 17.031 6.099 10.3 0 15.996-5.121 15.996-12.831 0-8.689-8.746-10.53-15.075-11.853-4.258-.806-6.617-1.496-6.617-3.51 0-1.669 1.266-2.992 4.546-2.992 3.394 0 7.595 1.323 10.817 3.97l5.409-7.077c-4.086-3.51-9.437-5.351-15.593-5.351-9.84 0-15.306 5.58-15.306 12.025 0 8.937 8.562 10.645 14.865 11.903l.325.065c4.086.863 6.56 1.726 6.56 3.913 0 1.841-2.072 3.28-5.466 3.28a17.34 17.34 0 0 1-12.256-5.064Zm32.42-25.547v38.378h28.136v-8.343h-18.239v-6.904h17.837V65.11h-17.837v-6.387h18.239v-8.343h-28.136Zm33.882 38.378V50.381h9.897v29.748h15.42v8.63h-25.317Zm30.455-38.378v38.378h28.137v-8.343h-18.24v-6.904h17.837V65.11h-17.837v-6.387h18.24v-8.343h-28.137Zm82.295 8.63V88.76h9.897V59.012H282.5V50.38h-31.359v8.63h10.76Z" clip-rule="evenodd"/></g><path fill="#fff" d="M288.589 47v-8.685h-3.105v-1.32h7.695v1.32h-3.09V47h-1.5Zm14.763 0v-7.95l-3.24 7.95h-.63l-3.24-7.95V47h-1.5V36.995h2.145l2.91 7.185 2.91-7.185h2.145V47h-1.5Z"/><defs><radialGradient id="b" cx="0" cy="0" r="1" gradientTransform="matrix(0 31 -30.9912 0 282.555 95.782)" gradientUnits="userSpaceOnUse"><stop stop-color="#fff"/><stop offset="1" stop-color="#fff" stop-opacity="0"/></radialGradient><radialGradient id="c" cx="0" cy="0" r="1" gradientTransform="matrix(0 17.9014 -17.8963 0 282.557 96.212)" gradientUnits="userSpaceOnUse"><stop stop-color="#fff"/><stop offset="1" stop-color="#fff" stop-opacity="0"/></radialGradient><radialGradient id="e" cx="0" cy="0" r="1" gradientTransform="matrix(0 22 -21.9939 0 73.333 44.34)" gradientUnits="userSpaceOnUse"><stop stop-color="#fff"/><stop offset="1" stop-color="#fff" stop-opacity="0"/></radialGradient><radialGradient id="f" cx="0" cy="0" r="1" gradientTransform="matrix(0 12.7042 -12.7007 0 73.334 44.645)" gradientUnits="userSpaceOnUse"><stop stop-color="#fff"/><stop offset="1" stop-color="#fff" stop-opacity="0"/></radialGradient><filter id="a" width="74.08" height="74.098" x="245.515" y="58.733" color-interpolation-filters="sRGB" filterUnits="userSpaceOnUse"><feFlood flood-opacity="0" result="BackgroundImageFix"/><feBlend in="SourceGraphic" in2="BackgroundImageFix" result="shape"/><feGaussianBlur result="effect1_foregroundBlur_8154_2366" stdDeviation="3.024"/></filter><filter id="d" width="52.573" height="52.585" x="47.047" y="18.048" color-interpolation-filters="sRGB" filterUnits="userSpaceOnUse"><feFlood flood-opacity="0" result="BackgroundImageFix"/><feBlend in="SourceGraphic" in2="BackgroundImageFix" result="shape"/><feGaussianBlur result="effect1_foregroundBlur_8154_2366" stdDeviation="2.146"/></filter><clipPath id="g"><path fill="#fff" d="M32 46h251v45H32z"/></clipPath></defs></svg>